# xmcd
#
# Track frame offsets: 
#        150
#        10476
#        28362
#        44841
#        67485
#        82986
#        89676
#        107549
#        116234
#        135058
#        156258
#        166305
#        180135
#        202053
#        220152
#        238409
#        247489
#
# Disc length: 3479 seconds
#
# Revision: 5
# Processed by: cddbd v1.5.2PL0 Copyright (c) Steve Scherf et al.
# Submitted via: ExactAudioCopyFreeDBPlugin 1.0
#
DISCID=020d9511
DTITLE=Prinz Porno - BlackbookCD #2 - Jung, Schön and Stylish
DYEAR=2002
DGENRE=Rap
TTITLE0=Inntrovativ
TTITLE1=Wir laufen wie Stars feat. Jack Orsen and M. Staiger
TTITLE2=Jung, schön and stylish feat. Justus
TTITLE3=Wer sind die Jungs feat. Din and Smexer
TTITLE4=Lustlos feat. Justus
TTITLE5=Select
TTITLE6=Ich pay deuce feat. Kobra
TTITLE7=Fu Manalog feat. Fu Man Schu
TTITLE8=Treues Geld feat. SrB
TTITLE9=Ziggi Diggital Mode feat. Fu Man Schu
TTITLE10=Synthiebank 83 Skit
TTITLE11=H_Eiskalt 2
TTITLE12=Wir feat. Smexer and Kobra
TTITLE13=Schöne Büros feat. M. Staiger
TTITLE14=Wunderkind
TTITLE15=Outro
TTITLE16=Kein Style feat. Shadow (Bonustrack)
EXTD=
EXTT0=
EXTT1=
EXTT2=
EXTT3=
EXTT4=
EXTT5=
EXTT6=
EXTT7=
EXTT8=
EXTT9=
EXTT10=
EXTT11=
EXTT12=
EXTT13=
EXTT14=
EXTT15=
EXTT16=
PLAYORDER=
